# xmcd
#
# Track frame offsets:
# 150
# 18107
# 33157
# 45585
# 65597
# 78067
# 96580
# 107180
# 132512
# 153435
# 176400
#
# Disc length: 2707 seconds
#
#
# Revision: 0
# Processed by: cddbd v1.5.2PL0 Copyright (c) Steve Scherf et al.
# Submitted via: FreeRIP 2.945 
#
DISCID=850a910b
DTITLE=Stevie Wonder - Natural Wonder [CD2]
DYEAR=1996
DGENRE=R&B
TTITLE0=Overjoyed
TTITLE1=My Cherie Amour
TTITLE2=Signed, Sealed, Delivered, I'm Yours
TTITLE3=Living for the City
TTITLE4=Sir Duke
TTITLE5=I Wish
TTITLE6=You Are the Sunshine of My Life
TTITLE7=Superstition
TTITLE8=I Just Called to Say I Love You
TTITLE9=For Your Love
TTITLE10=Another Star
EXTD=
EXTT0=
EXTT1=
EXTT2=
EXTT3=
EXTT4=
EXTT5=
EXTT6=
EXTT7=
EXTT8=
EXTT9=
EXTT10=
PLAYORDER=
